<svg width="50" height="49" viewBox="0 0 50 49" fill="none" xmlns="http://www.w3.org/2000/svg">
<path d="M49.4198 35.0583C47.4761 34.6743 46.0107 36.0502 44.1756 34C43.696 33.4646 43.0034 33.7664 42.7836 34.4184C41.2086 39.0981 37.9322 36.8373 36.431 33.5595C36.1401 32.925 35.3166 32.98 35.0138 33.5595C33.9762 36.4493 31.9781 36.8052 29.0191 34.6272C28.5491 34.1592 27.7782 34.3166 27.6015 35.0532C26.3133 40.4253 21.8116 38.9494 20.4248 34.535C20.355 34.3127 20.2048 34.2048 20.0487 34.1855C19.7332 33.7359 19.0185 33.6012 18.7722 34.2317C16.9982 38.7715 13.7053 38.0766 11.6558 34.2378C11.2858 33.545 10.5221 33.7852 10.2795 34.4426C8.55587 39.1129 3.53353 39.0056 3.62297 33.3915C3.63278 32.7697 2.81515 32.6477 2.67688 33.2459C1.05912 40.2425 8.57922 41.4559 11.1842 36.32C13.8749 39.8032 17.9097 40.5181 19.834 35.8303C21.4757 40.9716 26.8385 41.9828 28.8318 36.8672C31.363 38.7923 33.7742 38.4899 35.6765 35.7547C37.9964 39.5256 42.1303 40.9148 43.9654 36.2617C45.6495 37.559 46.7667 36.6515 49.2035 36.8738C50.1129 36.9572 50.3207 35.2366 49.4198 35.0583Z" fill="#00B2A0"/>
<path d="M46.3739 42.5972C45.6115 44.0232 45.348 45.3012 43.7148 45.9982C41.7045 46.8569 39.7036 44.8082 38.7129 43.1283C38.3711 42.5485 37.542 42.4371 37.2228 43.1283C35.8234 46.1584 32.7243 45.4185 31.4019 42.4942C31.0768 41.7748 29.9774 41.9032 29.8423 42.7262C29.0992 47.2593 25.7628 47.7391 23.5283 44.4535C23.7722 43.5688 22.5 42.9667 22.1531 43.8326C20.2774 48.5165 16.6154 47.9932 14.49 43.8132C14.1211 43.0878 13.2947 43.3422 13.0564 44.0266C11.329 48.9887 8.6386 46.6282 7.12884 43.2126C6.8348 42.547 5.9962 42.7776 5.81892 43.4075C4.99385 46.3412 3.63457 46.8889 1.3446 47.6479C0.913355 47.7911 0.979965 48.6431 1.4542 48.5712C4.07802 48.173 5.51108 47.6415 6.58349 45.4169C8.78668 49.3337 11.8624 50.1338 13.9263 46.0124C16.6024 49.8262 20.9013 50.261 23.0313 45.7236C25.3971 49.3875 29.3649 49.2071 30.9537 45.2145C33.0035 47.9672 35.9869 48.3539 38.051 45.2734C41.1228 48.7896 47.4052 49.5766 47.6292 42.9851C47.657 42.199 46.7112 41.966 46.3739 42.5972Z" fill="#00B2A0"/>
<path d="M14.1116 7.35498C13.5973 7.52538 13.3945 7.96498 13.4102 8.40881C9.76595 9.02182 7.40672 13.1154 7.12515 17.2328C6.74008 22.8662 10.9432 26.1754 15.5003 25.7552C20.1599 25.3258 23.191 20.5824 23.0541 15.4846C22.9172 10.3929 18.6804 5.8386 14.1116 7.35498ZM14.8703 23.1798C11.5257 23.4922 9.36204 20.9208 9.426 17.2328C9.49314 13.3673 12.0947 10.8183 15.1105 9.7992C15.1657 9.78047 15.2055 9.74844 15.2503 9.72004C18.1902 10.2421 20.4136 11.5156 20.7259 15.484C21.0502 19.6005 18.3953 22.8499 14.8703 23.1798Z" fill="#00B2A0"/>
<path d="M9.87044 7.18457C9.32189 6.50508 8.71417 5.90808 8.09185 5.31893C7.47484 4.73461 6.82041 3.60405 5.95049 3.6965C5.48979 3.74545 5.1777 4.07809 5.14559 4.61286C5.08455 5.6277 5.9635 6.12622 6.6028 6.64376C7.33366 7.23502 8.09291 7.76405 8.77123 8.43628C9.52385 9.18254 10.5538 8.03083 9.87044 7.18457Z" fill="#00B2A0"/>
<path d="M4.82733 10.2408C5.11978 10.2809 4.8613 10.2326 4.78407 10.2051C4.66545 10.1625 4.54921 10.1114 4.43324 10.0607C4.30188 10.0036 4.17184 9.94195 4.04207 9.88031C4.03331 9.87608 4.02854 9.87397 4.01553 9.86732C3.89186 9.59692 3.67929 9.37908 3.40569 9.2815C2.91712 9.10656 2.17405 8.68872 1.64594 8.87755C1.34739 8.9845 1.03451 9.26579 0.976388 9.63982C0.976388 9.63982 0.976122 9.64133 0.976122 9.64193C0.920923 9.99633 0.944807 10.4574 1.22266 10.7039C1.37738 10.8405 1.55837 10.9372 1.74705 11.0205C1.59419 11.0199 1.7176 11.0281 1.85586 11.0647C1.95379 11.103 2.05038 11.1423 2.15123 11.1728C2.39432 11.2659 2.63714 11.3604 2.8789 11.4568C3.0177 11.5127 3.16074 11.5175 3.299 11.4891C3.79606 11.6396 4.34036 11.81 4.8276 11.7762C5.71344 11.7145 5.67549 10.3577 4.82733 10.2408Z" fill="#00B2A0"/>
<path d="M3.30909 18.8735C2.93703 19.2285 2.50286 19.5068 2.07985 19.7736C1.86117 19.9117 1.63507 20.0546 1.40074 20.1552C1.26035 20.2153 1.0369 20.1648 1.3458 20.2292C1.19241 20.1975 1.04698 20.1941 0.894388 20.1754C-0.391913 20.0174 -0.27488 22.6616 1.14305 22.2676C1.66532 22.1226 2.199 21.5552 2.64298 21.1918C3.15809 20.7703 3.6724 20.3096 4.09701 19.7706C4.58239 19.1548 3.85604 18.3512 3.30909 18.8735Z" fill="#00B2A0"/>
<path d="M6.58769 24.1141C6.15193 24.8755 5.75466 25.6646 5.34013 26.4408C4.89084 27.2816 4.12973 27.9086 4.02994 28.9146C3.96625 29.557 4.58406 29.8751 5.04025 29.7908C5.97306 29.6186 6.42819 28.2669 6.76921 27.3913C7.1211 26.4879 7.33739 25.5405 7.61922 24.6087C7.83577 23.8912 6.92286 23.528 6.58769 24.1141Z" fill="#00B2A0"/>
<path d="M15.4027 26.8503C15.3109 26.3128 14.5808 26.3385 14.4738 26.8503C14.1931 28.1957 13.8643 29.5296 13.5885 30.8762C13.5219 31.2013 13.5792 31.5774 13.8056 31.8113C13.7685 31.7548 13.7727 31.766 13.8181 31.8442C14.088 32.3463 14.6551 32.2889 14.9348 31.8442C14.6793 32.2503 15.1158 31.6475 15.1315 31.6167C15.2344 31.4164 15.2432 31.2061 15.2541 30.9813C15.2769 30.516 15.3249 30.052 15.3639 29.5882C15.4406 28.6839 15.5566 27.7504 15.4027 26.8503Z" fill="#00B2A0"/>
<path d="M25.0979 27.6454C24.4304 26.5553 23.3705 25.8556 22.7638 24.7298C22.3485 23.9588 21.3974 24.6304 21.7182 25.4256C21.9964 26.1148 22.4212 26.687 22.8599 27.2511C23.0693 27.5203 23.2837 27.7832 23.4679 28.0756C23.7192 28.4747 23.8225 28.9231 24.3123 29.0007C24.5942 29.0454 24.9158 28.982 25.0581 28.6548C25.0713 28.6246 25.0846 28.5944 25.0976 28.5638C25.2192 28.2853 25.2659 27.92 25.0979 27.6454Z" fill="#00B2A0"/>
<path d="M28.981 19.5122C27.8576 19.5796 26.734 19.6442 25.6107 19.708C24.5998 19.7654 24.5998 21.4362 25.6107 21.4939C26.7343 21.5579 27.8576 21.6226 28.981 21.6893C30.2145 21.7634 30.2145 19.4388 28.981 19.5122Z" fill="#00B2A0"/>
<path d="M28.9814 6.95685C27.9623 6.93268 27.1386 8.3261 26.5279 9.1355C25.8716 10.005 25.295 10.9474 24.6259 11.8054C24.1148 12.461 24.9027 13.3689 25.4725 12.7692C26.1471 12.0586 26.7596 11.2776 27.4071 10.5359C27.7728 10.1171 28.1513 9.69534 28.5663 9.33974C29.0766 8.90316 29.4776 8.76146 29.7045 8.03726C29.8731 7.49978 29.4394 6.96773 28.9814 6.95685Z" fill="#00B2A0"/>
<path d="M24.086 1.27034C23.4828 1.71084 23.0805 2.42628 22.6659 3.08039C22.1827 3.84296 21.7233 4.60915 21.1644 5.30465C20.5315 6.0923 21.516 7.22558 22.1957 6.47872C22.7233 5.89864 23.1903 5.26628 23.6481 4.61489C24.1396 3.91577 24.7733 3.27556 25.1778 2.51299C25.5838 1.748 24.7664 0.773642 24.086 1.27034Z" fill="#00B2A0"/>
<path d="M16.5488 0.222064C16.2548 -0.0740213 15.87 -0.0740213 15.5759 0.222064C14.9987 0.803358 15.2649 1.81821 15.3129 2.59196C15.3681 3.47961 15.4273 4.36635 15.4982 5.2528C15.5642 6.07942 16.5605 6.07942 16.6266 5.2528C16.6974 4.36605 16.7566 3.47991 16.8118 2.59196C16.8598 1.81851 17.126 0.803056 16.5488 0.222064Z" fill="#00B2A0"/>
</svg>
